<?xml version="1.0" encoding="iso-8859-1"?>
<!-- Generator: Adobe Illustrator 19.0.0, SVG Export Plug-In . SVG Version: 6.00 Build 0)  -->
<svg version="1.1" id="Capa_1" xmlns="http://www.w3.org/2000/svg" xmlns:xlink="http://www.w3.org/1999/xlink" x="0px" y="0px"
	 viewBox="0 0 512.036 512.036" style="enable-background:new 0 0 512.036 512.036;" xml:space="preserve"
   height ="30px" width ="30px">
<g>
	<g>
		<g>
			<path d="M502.4,9.488c-13.039-12.452-33.564-12.452-46.603,0l-75.71,75.733H117.333v21.333h241.427l-76.03,76.053
				c-0.99,0.99-1.736,2.128-2.255,3.341l-0.006-0.003l-23.605,55.072c-0.569,1.328-0.863,2.757-0.863,4.201
				c-0.001,5.891,4.774,10.667,10.666,10.668h64c17.673,0,32,14.327,32,32v1.828c-12.427,4.394-21.333,16.24-21.333,30.172
				c0,2.773,0.354,5.464,1.017,8.03l-170.592,75.816c-5.774-5.675-13.689-9.179-22.425-9.179c-17.673,0-32,14.327-32,32
				s14.327,32,32,32c17.673,0,32-14.327,32-32c0-1.23-0.076-2.443-0.212-3.637l173.474-77.097
				c5.268,3.813,11.738,6.067,18.738,6.067c17.673,0,32-14.327,32-32c0-13.932-8.906-25.778-21.333-30.172v-1.828
				c-0.035-29.441-23.893-53.298-53.333-53.333h-11.985l7.217-3.093l-0.01-0.024c1.255-0.53,2.41-1.298,3.391-2.28l122.067-122.059
				c4.25,1.405,7.32,5.402,7.32,10.123v362.667c0,5.891-4.776,10.667-10.667,10.667H53.333c-9.018-0.008-17.616-3.81-23.691-10.475
				c-5.376-5.876-8.343-13.561-8.309-21.525v-0.459c0.011-0.907,0.064-1.824,0.149-2.741c2.265-16.773,16.765-29.169,33.685-28.8
				h30.165c5.891,0,10.667-4.776,10.667-10.667V53.221c0-5.891-4.776-10.667-10.667-10.667h-32C23.893,42.59,0.035,66.447,0,95.888
				v362.667c0,29.455,23.878,53.333,53.333,53.333H448c17.673,0,32-14.327,32-32V117.221c0-10.565-5.123-19.931-13.017-25.759
				L502.4,56.048C515.248,43.187,515.248,22.348,502.4,9.488z M149.333,437.221c-5.891,0-10.667-4.776-10.667-10.667
				s4.776-10.667,10.667-10.667c5.891,0,10.667,4.776,10.667,10.667S155.224,437.221,149.333,437.221z M373.333,330.554
				c-5.891,0-10.667-4.776-10.667-10.667s4.776-10.667,10.667-10.667c5.891,0,10.667,4.776,10.667,10.667
				S379.224,330.554,373.333,330.554z M21.333,95.888c0-17.673,14.327-32,32-32h21.333v341.333H55.168
				c-12.208,0.001-24.083,3.973-33.835,11.317V95.888z M293.86,208.819l9.218,9.218l-16.144,6.917L293.86,208.819z M321.739,206.533
				l-16.384-16.384L439.768,55.753l16.375,16.375L321.739,206.533z M487.275,40.997l-16.047,16.047l-16.374-16.374l16.048-16.046
				c4.578-4.382,11.795-4.382,16.373,0c0.002,0.002,0.004,0.004,0.006,0.006C491.799,29.151,491.796,36.479,487.275,40.997z"/>
			<path d="M181.333,191.888c0-17.673-14.327-32-32-32c-17.673,0-32,14.327-32,32c0,13.932,8.906,25.778,21.333,30.172v1.828
				c0,17.673,14.327,32,32,32h64v-21.333h-64c-5.891,0-10.667-4.776-10.667-10.667v-1.828
				C172.427,217.666,181.333,205.82,181.333,191.888z M149.333,181.221c5.891,0,10.667,4.776,10.667,10.667
				s-4.776,10.667-10.667,10.667c-5.891,0-10.667-4.776-10.667-10.667S143.442,181.221,149.333,181.221z"/>
			<polygon points="359.565,455.437 373.368,441.635 387.148,455.415 402.233,440.33 388.453,426.549 402.233,412.769 
				387.148,397.684 373.368,411.464 359.565,397.662 344.48,412.747 358.283,426.549 344.48,440.352 			"/>
			<polygon points="163.159,291.005 149.364,304.8 135.561,290.997 120.476,306.082 134.279,319.885 120.491,333.673 
				135.576,348.758 149.364,334.97 163.144,348.75 178.229,333.665 164.449,319.885 178.244,306.09 			"/>
		</g>
	</g>
</g>
<g>
</g>
<g>
</g>
<g>
</g>
<g>
</g>
<g>
</g>
<g>
</g>
<g>
</g>
<g>
</g>
<g>
</g>
<g>
</g>
<g>
</g>
<g>
</g>
<g>
</g>
<g>
</g>
<g>
</g>
</svg>
