<?xml version="1.0" encoding="iso-8859-1"?>
<!-- Generator: Adobe Illustrator 19.0.0, SVG Export Plug-In . SVG Version: 6.00 Build 0)  -->
<svg version="1.1" id="Capa_1" xmlns="http://www.w3.org/2000/svg" xmlns:xlink="http://www.w3.org/1999/xlink" x="0px" y="0px"
	 viewBox="0 0 512 512" style="enable-background:new 0 0 512 512;" xml:space="preserve"
   height ="30px" width ="30px">
<g>
	<g>
		<path d="M472.059,180.247c11.033-15.736,16.98-34.445,16.98-54.032c0-52.043-42.344-94.384-94.389-94.384
			c-17.092,0-33.83,4.672-48.375,13.349C318.973,16.305,281.398,0,241.172,0C161.273,0,96.27,65.003,96.27,144.901
			c0,13.074,1.742,25.957,5.19,38.456c-33.833,17.454-55.706,52.572-55.706,91.447c0,56.742,46.162,102.904,102.902,102.904
			c13.568,0,27.002-2.697,39.461-7.871c19.33,20.57,46.568,32.549,75.059,32.549c17.986,0,35.361-4.613,50.811-13.422
			c20.044,11.643,42.696,17.752,66.099,17.752C452.824,406.716,512,347.54,512,274.804C512,238.69,497.611,204.995,472.059,180.247z
			 M380.086,376.717c-20.689,0-40.616-6.178-57.627-17.867c-2.561-1.76-5.529-2.639-8.495-2.639c-3.041,0-6.081,0.924-8.678,2.766
			c-12.372,8.773-26.933,13.41-42.11,13.41c-23.201,0-45.234-11.222-58.94-30.018c-4.499-6.17-12.916-7.976-19.549-4.194
			c-10.943,6.238-23.402,9.535-36.031,9.535c-40.197,0-72.902-32.705-72.902-72.904c0-31.089,19.745-58.786,49.133-68.922
			c3.851-1.328,6.996-4.166,8.713-7.86c1.716-3.693,1.855-7.928,0.388-11.728c-5.121-13.25-7.718-27.178-7.718-41.393
			C126.27,81.545,177.815,30,241.172,30c35.709,0,68.791,16.215,90.762,44.487c2.498,3.214,6.194,5.274,10.242,5.709
			c4.043,0.437,8.096-0.793,11.22-3.403c11.548-9.648,26.198-14.962,41.255-14.962c35.504,0,64.389,28.883,64.389,64.384
			c0,17.036-6.598,33.099-18.576,45.229c-3.023,3.063-4.586,7.276-4.291,11.57c0.297,4.294,2.422,8.254,5.838,10.873
			c25.414,19.484,39.99,48.979,39.99,80.918C482,330.999,436.281,376.717,380.086,376.717z"/>
	</g>
</g>
<g>
	<g>
		<circle cx="15" cy="497" r="15"/>
	</g>
</g>
<g>
	<g>
		<circle cx="119.43" cy="456.84" r="15"/>
	</g>
</g>
<g>
</g>
<g>
</g>
<g>
</g>
<g>
</g>
<g>
</g>
<g>
</g>
<g>
</g>
<g>
</g>
<g>
</g>
<g>
</g>
<g>
</g>
<g>
</g>
<g>
</g>
<g>
</g>
<g>
</g>
</svg>
